AmstelvarA2-Italic_YTLC436.ufo
<glyph name="a" format="2">
  <advance width="1045"/>
  <unicode hex="0061"/>
  <anchor x="345.0" y="0" name="bottom"/>
  <anchor x="732" y="0" name="ogonek"/>
  <anchor x="579.0" y="850" name="top"/>
  <outline>
    <contour>
      <point x="-6" y="238" type="qcurve" smooth="yes"/>
      <point x="-6" y="490"/>
      <point x="411" y="860"/>
      <point x="612" y="860" type="qcurve" smooth="yes"/>
      <point x="630" y="860"/>
      <point x="685" y="847"/>
      <point x="705" y="836" type="qcurve"/>
      <point x="784" y="889" type="line"/>
      <point x="830" y="889" type="line"/>
      <point x="876" y="706" type="line"/>
      <point x="795" y="367" type="line"/>
      <point x="765" y="213" type="line"/>
      <point x="764" y="145"/>
      <point x="775" y="80"/>
      <point x="800" y="18" type="qcurve"/>
      <point x="636" y="-9" type="line"/>
      <point x="609" y="35"/>
      <point x="591" y="129"/>
      <point x="595" y="183" type="qcurve"/>
      <point x="485" y="78"/>
      <point x="286" y="-10"/>
      <point x="215" y="-10" type="qcurve" smooth="yes"/>
      <point x="98" y="-10"/>
      <point x="-6" y="133"/>
    </contour>
    <contour>
      <point x="159" y="290" type="qcurve" smooth="yes"/>
      <point x="159" y="214"/>
      <point x="223" y="127"/>
      <point x="292" y="127" type="qcurve" smooth="yes"/>
      <point x="410" y="127"/>
      <point x="631" y="314"/>
      <point x="667" y="491" type="qcurve" smooth="yes"/>
      <point x="701" y="655" type="line"/>
      <point x="698" y="695"/>
      <point x="622" y="721"/>
      <point x="581" y="721" type="qcurve" smooth="yes"/>
      <point x="393" y="721"/>
      <point x="159" y="472"/>
    </contour>
  </outline>
</glyph>
<glyph name="b" format="2">
  <advance width="1042"/>
  <unicode hex="0062"/>
  <anchor x="571.0" y="0" name="bottom"/>
  <anchor x="571.0" y="1533" name="top"/>
  <outline>
    <contour>
      <point x="48" y="241" type="qcurve" smooth="yes"/>
      <point x="122" y="633" type="line"/>
      <point x="269" y="1410" type="line"/>
      <point x="135" y="1502" type="line"/>
      <point x="163" y="1574" type="line"/>
      <point x="374" y="1608" type="line"/>
      <point x="461" y="1538" type="line"/>
      <point x="279" y="601" type="line"/>
      <point x="207" y="227" type="line" smooth="yes"/>
      <point x="195" y="165"/>
      <point x="229" y="116"/>
      <point x="276" y="116" type="qcurve" smooth="yes"/>
      <point x="496" y="116"/>
      <point x="759" y="384"/>
      <point x="759" y="599" type="qcurve" smooth="yes"/>
      <point x="759" y="663"/>
      <point x="688" y="740"/>
      <point x="615" y="740" type="qcurve" smooth="yes"/>
      <point x="523" y="740"/>
      <point x="276" y="548"/>
      <point x="179" y="436" type="qcurve"/>
      <point x="205" y="567" type="line"/>
      <point x="307" y="704"/>
      <point x="579" y="888"/>
      <point x="697" y="888" type="qcurve" smooth="yes"/>
      <point x="802" y="888"/>
      <point x="931" y="769"/>
      <point x="931" y="624" type="qcurve" smooth="yes"/>
      <point x="931" y="342"/>
      <point x="508" y="-13"/>
      <point x="238" y="-13" type="qcurve" smooth="yes"/>
      <point x="118" y="-13"/>
      <point x="28" y="137"/>
    </contour>
  </outline>
</glyph>
<glyph name="c" format="2">
  <advance width="911"/>
  <unicode hex="0063"/>
  <anchor x="343.0" y="0" name="bottom"/>
  <anchor x="571.0" y="850" name="top"/>
  <outline>
    <contour>
      <point x="-2" y="430" type="qcurve" smooth="yes"/>
      <point x="48" y="635"/>
      <point x="399" y="871"/>
      <point x="588" y="871" type="qcurve" smooth="yes"/>
      <point x="684" y="871"/>
      <point x="817" y="778"/>
      <point x="817" y="690" type="qcurve" smooth="yes"/>
      <point x="817" y="613"/>
      <point x="740" y="493"/>
      <point x="674" y="480" type="qcurve"/>
      <point x="651" y="507" type="line"/>
      <point x="651" y="680" type="line" smooth="yes"/>
      <point x="651" y="705"/>
      <point x="594" y="742"/>
      <point x="533" y="742" type="qcurve" smooth="yes"/>
      <point x="405" y="742"/>
      <point x="192" y="581"/>
      <point x="156" y="424" type="qcurve" smooth="yes"/>
      <point x="124" y="291"/>
      <point x="224" y="119"/>
      <point x="385" y="119" type="qcurve" smooth="yes"/>
      <point x="480" y="119"/>
      <point x="681" y="227"/>
      <point x="743" y="316" type="qcurve"/>
      <point x="801" y="252" type="line"/>
      <point x="801" y="223" type="line"/>
      <point x="737" y="127"/>
      <point x="480" y="-17"/>
      <point x="328" y="-17" type="qcurve" smooth="yes"/>
      <point x="124" y="-17"/>
      <point x="-51" y="230"/>
    </contour>
  </outline>
</glyph>
<glyph name="d" format="2">
  <advance width="1067"/>
  <unicode hex="0064"/>
  <anchor x="604" y="0" name="bottom"/>
  <anchor x="876" y="1202.0" name="center"/>
  <anchor x="704" y="1534" name="top"/>
  <anchor x="1076" y="1000" name="topright"/>
  <outline>
    <contour>
      <point x="-6" y="238" type="qcurve" smooth="yes"/>
      <point x="-6" y="490"/>
      <point x="424" y="871"/>
      <point x="697" y="871" type="qcurve" smooth="yes"/>
      <point x="729" y="871" type="line"/>
      <point x="829" y="1408" type="line"/>
      <point x="695" y="1500" type="line"/>
      <point x="723" y="1572" type="line"/>
      <point x="934" y="1606" type="line"/>
      <point x="1021" y="1536" type="line"/>
      <point x="812" y="469" type="line"/>
      <point x="763" y="133" type="line"/>
      <point x="848" y="133" type="line"/>
      <point x="848" y="44" type="line"/>
      <point x="621" y="-16" type="line"/>
      <point x="584" y="65" type="line"/>
      <point x="607" y="192" type="line"/>
      <point x="537" y="98"/>
      <point x="316" y="-10"/>
      <point x="215" y="-10" type="qcurve" smooth="yes"/>
      <point x="102" y="-10"/>
      <point x="-6" y="133"/>
    </contour>
    <contour>
      <point x="163" y="290" type="qcurve" smooth="yes"/>
      <point x="163" y="217"/>
      <point x="223" y="127"/>
      <point x="292" y="127" type="qcurve" smooth="yes"/>
      <point x="410" y="127"/>
      <point x="634" y="313"/>
      <point x="667" y="491" type="qcurve" smooth="yes"/>
      <point x="698" y="655" type="line"/>
      <point x="695" y="695"/>
      <point x="629" y="721"/>
      <point x="588" y="721" type="qcurve" smooth="yes"/>
      <point x="400" y="721"/>
      <point x="163" y="461"/>
    </contour>
  </outline>
</glyph>
<glyph name="e" format="2">
  <advance width="986"/>
  <unicode hex="0065"/>
  <anchor x="339" y="0" name="bottom"/>
  <anchor x="495" y="0" name="ogonek"/>
  <anchor x="572" y="850" name="top"/>
  <outline>
    <contour>
      <point x="12" y="425" type="qcurve" smooth="yes"/>
      <point x="58" y="627"/>
      <point x="384" y="868"/>
      <point x="565" y="868" type="qcurve" smooth="yes"/>
      <point x="702" y="868"/>
      <point x="839" y="769"/>
      <point x="854" y="699" type="qcurve" smooth="yes"/>
      <point x="862" y="661"/>
      <point x="859" y="589"/>
      <point x="849" y="545" type="qcurve"/>
      <point x="879" y="536" type="line"/>
      <point x="844" y="435" type="line"/>
      <point x="772" y="437"/>
      <point x="650" y="437"/>
      <point x="585" y="437" type="qcurve" smooth="yes"/>
      <point x="107" y="435" type="line"/>
      <point x="144" y="529" type="line"/>
      <point x="666" y="537" type="line"/>
      <point x="675" y="564"/>
      <point x="683" y="632"/>
      <point x="677" y="661" type="qcurve" smooth="yes"/>
      <point x="670" y="695"/>
      <point x="603" y="739"/>
      <point x="532" y="739" type="qcurve" smooth="yes"/>
      <point x="413" y="739"/>
      <point x="206" y="591"/>
      <point x="178" y="451" type="qcurve" smooth="yes"/>
      <point x="147" y="300"/>
      <point x="249" y="127"/>
      <point x="386" y="120" type="qcurve" smooth="yes"/>
      <point x="481" y="115"/>
      <point x="683" y="213"/>
      <point x="766" y="313" type="qcurve"/>
      <point x="806" y="258" type="line"/>
      <point x="827" y="230" type="line"/>
      <point x="751" y="115"/>
      <point x="504" y="-23"/>
      <point x="326" y="-17" type="qcurve" smooth="yes"/>
      <point x="144" y="-11"/>
      <point x="-31" y="238"/>
    </contour>
  </outline>
</glyph>
<glyph name="g" format="2">
  <advance width="1043"/>
  <unicode hex="0067"/>
  <anchor x="324.0" y="-416" name="bottom"/>
  <anchor x="573.0" y="850" name="top"/>
  <outline>
    <contour>
      <point x="-6" y="259" type="qcurve" smooth="yes"/>
      <point x="-6" y="509"/>
      <point x="406" y="860"/>
      <point x="608" y="860" type="qcurve" smooth="yes"/>
      <point x="636" y="860"/>
      <point x="685" y="851"/>
      <point x="707" y="840" type="qcurve"/>
      <point x="780" y="895" type="line"/>
      <point x="826" y="895" type="line"/>
      <point x="885" y="738" type="line"/>
      <point x="852" y="588" type="line" smooth="yes"/>
      <point x="816" y="423"/>
      <point x="755" y="123"/>
      <point x="735" y="48" type="qcurve" smooth="yes"/>
      <point x="650" y="-269"/>
      <point x="324" y="-464"/>
      <point x="150" y="-464" type="qcurve"/>
      <point x="-18" y="-424" type="line"/>
      <point x="-16" y="-348" type="line"/>
      <point x="168" y="-337" type="line" smooth="yes"/>
      <point x="304" y="-329"/>
      <point x="533" y="-128"/>
      <point x="581" y="83" type="qcurve" smooth="yes"/>
      <point x="616" y="236" type="line"/>
      <point x="489" y="102"/>
      <point x="282" y="16"/>
      <point x="211" y="16" type="qcurve" smooth="yes"/>
      <point x="94" y="16"/>
      <point x="-6" y="152"/>
    </contour>
    <contour>
      <point x="159" y="321" type="qcurve" smooth="yes"/>
      <point x="159" y="248"/>
      <point x="219" y="153"/>
      <point x="288" y="153" type="qcurve" smooth="yes"/>
      <point x="406" y="153"/>
      <point x="628" y="341"/>
      <point x="670" y="517" type="qcurve" smooth="yes"/>
      <point x="703" y="655" type="line"/>
      <point x="700" y="695"/>
      <point x="618" y="721"/>
      <point x="577" y="721" type="qcurve" smooth="yes"/>
      <point x="389" y="721"/>
      <point x="159" y="489"/>
    </contour>
  </outline>
</glyph>
<glyph name="h" format="2">
  <advance width="1157"/>
  <unicode hex="0068"/>
  <anchor x="420.0" y="0" name="bottom"/>
  <anchor x="347.0" y="1202" name="center"/>
  <anchor x="424.0" y="1534" name="top"/>
  <outline>
    <contour>
      <point x="56" y="-23" type="line"/>
      <point x="14" y="56" type="line"/>
      <point x="117" y="527" type="line"/>
      <point x="275" y="1404" type="line"/>
      <point x="171" y="1500" type="line"/>
      <point x="199" y="1572" type="line"/>
      <point x="380" y="1602" type="line"/>
      <point x="467" y="1532" type="line"/>
      <point x="284" y="588" type="line"/>
      <point x="199" y="87" type="line"/>
      <point x="230" y="0" type="line"/>
    </contour>
    <contour>
      <point x="692" y="-14" type="line"/>
      <point x="651" y="75" type="line"/>
      <point x="744" y="552" type="line" smooth="yes"/>
      <point x="760" y="633"/>
      <point x="717" y="727"/>
      <point x="640" y="727" type="qcurve" smooth="yes"/>
      <point x="542" y="727"/>
      <point x="295" y="554"/>
      <point x="171" y="414" type="qcurve"/>
      <point x="200" y="557" type="line"/>
      <point x="287" y="671"/>
      <point x="582" y="871"/>
      <point x="700" y="871" type="qcurve" smooth="yes"/>
      <point x="809" y="871"/>
      <point x="942" y="728"/>
      <point x="914" y="592" type="qcurve" smooth="yes"/>
      <point x="819" y="134" type="line"/>
      <point x="955" y="134" type="line"/>
      <point x="955" y="46" type="line"/>
    </contour>
  </outline>
</glyph>
<glyph name="k" format="2">
  <advance width="1004"/>
  <unicode hex="006B"/>
  <anchor x="448.0" y="0" name="bottom"/>
  <anchor x="578.0" y="1534" name="top"/>
  <outline>
    <contour>
      <point x="558" y="408" type="line"/>
      <point x="121" y="175" type="line"/>
      <point x="142" y="281" type="line"/>
      <point x="689" y="581" type="line"/>
      <point x="689" y="658"/>
      <point x="609" y="743"/>
      <point x="556" y="743" type="qcurve" smooth="yes"/>
      <point x="475" y="743"/>
      <point x="322" y="591"/>
      <point x="271" y="499" type="qcurve"/>
      <point x="260" y="443" type="line"/>
      <point x="199" y="87" type="line"/>
      <point x="230" y="4" type="line"/>
      <point x="56" y="-23" type="line"/>
      <point x="14" y="56" type="line"/>
      <point x="117" y="527" type="line"/>
      <point x="274" y="1408" type="line"/>
      <point x="170" y="1500" type="line"/>
      <point x="198" y="1572" type="line"/>
      <point x="379" y="1606" type="line"/>
      <point x="466" y="1536" type="line"/>
      <point x="297" y="653" type="line"/>
      <point x="348" y="748"/>
      <point x="522" y="871"/>
      <point x="613" y="871" type="qcurve" smooth="yes"/>
      <point x="713" y="871"/>
      <point x="835" y="755"/>
      <point x="840" y="639" type="qcurve" smooth="yes"/>
      <point x="843" y="580" type="line"/>
      <point x="832" y="558" type="line"/>
    </contour>
    <contour>
      <point x="604" y="484" type="line"/>
      <point x="817" y="133" type="line"/>
      <point x="941" y="133" type="line"/>
      <point x="941" y="45" type="line"/>
      <point x="726" y="-6" type="line" smooth="yes"/>
      <point x="711" y="-10"/>
      <point x="689" y="9"/>
      <point x="630" y="115" type="qcurve" smooth="yes"/>
      <point x="470" y="403" type="line"/>
    </contour>
  </outline>
</glyph>
<glyph name="m" format="2">
  <advance width="1740"/>
  <unicode hex="006D"/>
  <anchor x="958.0" y="0" name="bottom"/>
  <anchor x="930.0" y="849" name="top"/>
  <outline>
    <contour>
      <point x="76" y="-23" type="line"/>
      <point x="34" y="56" type="line"/>
      <point x="137" y="527" type="line"/>
      <point x="160" y="671" type="line"/>
      <point x="18" y="667" type="line"/>
      <point x="20" y="764" type="line"/>
      <point x="239" y="850" type="line"/>
      <point x="285" y="850" type="line"/>
      <point x="318" y="585" type="line"/>
      <point x="314" y="588" type="line"/>
      <point x="209" y="87" type="line"/>
      <point x="240" y="4" type="line"/>
    </contour>
    <contour>
      <point x="671" y="-10" type="line"/>
      <point x="645" y="65" type="line"/>
      <point x="739" y="551" type="line" smooth="yes"/>
      <point x="755" y="633"/>
      <point x="718" y="726"/>
      <point x="641" y="726" type="qcurve" smooth="yes"/>
      <point x="543" y="726"/>
      <point x="315" y="549"/>
      <point x="199" y="412" type="qcurve"/>
      <point x="228" y="551" type="line"/>
      <point x="302" y="668"/>
      <point x="583" y="870"/>
      <point x="701" y="870" type="qcurve" smooth="yes"/>
      <point x="810" y="870"/>
      <point x="937" y="729"/>
      <point x="909" y="591" type="qcurve" smooth="yes"/>
      <point x="815" y="119" type="line"/>
      <point x="861" y="20" type="line"/>
    </contour>
    <contour>
      <point x="1276" y="-25" type="line"/>
      <point x="1235" y="64" type="line"/>
      <point x="1332" y="551" type="line" smooth="yes"/>
      <point x="1348" y="633"/>
      <point x="1311" y="726"/>
      <point x="1234" y="726" type="qcurve" smooth="yes"/>
      <point x="1136" y="726"/>
      <point x="908" y="549"/>
      <point x="796" y="413" type="qcurve"/>
      <point x="819" y="559" type="line"/>
      <point x="895" y="668"/>
      <point x="1176" y="870"/>
      <point x="1294" y="870" type="qcurve" smooth="yes"/>
      <point x="1403" y="870"/>
      <point x="1531" y="728"/>
      <point x="1502" y="591" type="qcurve" smooth="yes"/>
      <point x="1406" y="134" type="line"/>
      <point x="1542" y="134" type="line"/>
      <point x="1542" y="46" type="line"/>
    </contour>
  </outline>
</glyph>
<glyph name="n" format="2">
  <advance width="1173"/>
  <unicode hex="006E"/>
  <anchor x="522.0" y="0" name="bottom"/>
  <anchor x="573.0" y="850" name="top"/>
  <outline>
    <contour>
      <point x="76" y="-23" type="line"/>
      <point x="34" y="56" type="line"/>
      <point x="137" y="527" type="line"/>
      <point x="160" y="672" type="line"/>
      <point x="18" y="668" type="line"/>
      <point x="20" y="765" type="line"/>
      <point x="239" y="850" type="line"/>
      <point x="285" y="850" type="line"/>
      <point x="318" y="586" type="line"/>
      <point x="284" y="438" type="line"/>
      <point x="209" y="83" type="line"/>
      <point x="240" y="0" type="line"/>
    </contour>
    <contour>
      <point x="712" y="-14" type="line"/>
      <point x="671" y="75" type="line"/>
      <point x="765" y="552" type="line" smooth="yes"/>
      <point x="781" y="633"/>
      <point x="738" y="727"/>
      <point x="661" y="727" type="qcurve" smooth="yes"/>
      <point x="563" y="727"/>
      <point x="314" y="550"/>
      <point x="201" y="419" type="qcurve"/>
      <point x="226" y="554" type="line"/>
      <point x="301" y="669"/>
      <point x="603" y="871"/>
      <point x="721" y="871" type="qcurve" smooth="yes"/>
      <point x="830" y="871"/>
      <point x="963" y="728"/>
      <point x="935" y="592" type="qcurve" smooth="yes"/>
      <point x="839" y="134" type="line"/>
      <point x="975" y="134" type="line"/>
      <point x="975" y="46" type="line"/>
    </contour>
  </outline>
</glyph>
<glyph name="o" format="2">
  <advance width="1050"/>
  <unicode hex="006F"/>
  <anchor x="358.0" y="0" name="bottom"/>
  <anchor x="450.0" y="440.0" name="center"/>
  <anchor x="514" y="0" name="ogonek"/>
  <anchor x="555.0" y="850" name="top"/>
  <anchor x="634" y="850" name="topright"/>
  <anchor x="555" y="850" name="GRKtop"/>
  <outline>
    <contour>
      <point x="-3" y="458" type="qcurve" smooth="yes"/>
      <point x="36" y="641"/>
      <point x="336" y="882"/>
      <point x="541" y="868" type="qcurve" smooth="yes"/>
      <point x="750" y="855"/>
      <point x="940" y="599"/>
      <point x="898" y="401" type="qcurve" smooth="yes"/>
      <point x="860" y="219"/>
      <point x="552" y="-30"/>
      <point x="340" y="-16" type="qcurve" smooth="yes"/>
      <point x="139" y="-3"/>
      <point x="-45" y="257"/>
    </contour>
    <contour>
      <point x="165" y="463" type="qcurve" smooth="yes"/>
      <point x="134" y="313"/>
      <point x="228" y="104"/>
      <point x="366" y="93" type="qcurve" smooth="yes"/>
      <point x="503" y="84"/>
      <point x="696" y="261"/>
      <point x="728" y="414" type="qcurve" smooth="yes"/>
      <point x="758" y="556"/>
      <point x="656" y="744"/>
      <point x="515" y="753" type="qcurve" smooth="yes"/>
      <point x="379" y="763"/>
      <point x="194" y="606"/>
    </contour>
  </outline>
</glyph>
<glyph name="p" format="2">
  <advance width="1026"/>
  <unicode hex="0070"/>
  <anchor x="599.0" y="0" name="bottom"/>
  <anchor x="599.0" y="1000" name="top"/>
  <outline>
    <contour>
      <point x="-59" y="-392" type="line"/>
      <point x="112" y="451" type="line"/>
      <point x="157" y="655" type="line"/>
      <point x="123" y="852" type="line"/>
      <point x="241" y="908" type="line"/>
      <point x="284" y="908" type="line"/>
      <point x="303" y="712" type="line"/>
      <point x="390" y="783"/>
      <point x="606" y="888"/>
      <point x="688" y="888" type="qcurve" smooth="yes"/>
      <point x="802" y="888"/>
      <point x="919" y="784"/>
      <point x="919" y="663" type="qcurve" smooth="yes"/>
      <point x="919" y="369"/>
      <point x="495" y="30"/>
      <point x="285" y="30" type="qcurve" smooth="yes"/>
      <point x="254" y="30"/>
      <point x="202" y="41"/>
      <point x="181" y="51" type="qcurve"/>
      <point x="112" y="-316" type="line"/>
      <point x="237" y="-356" type="line"/>
      <point x="209" y="-428" type="line"/>
      <point x="28" y="-462" type="line"/>
    </contour>
    <contour>
      <point x="222" y="270" type="line"/>
      <point x="211" y="208"/>
      <point x="267" y="169"/>
      <point x="316" y="169" type="qcurve" smooth="yes"/>
      <point x="515" y="169"/>
      <point x="750" y="409"/>
      <point x="750" y="611" type="qcurve" smooth="yes"/>
      <point x="750" y="681"/>
      <point x="679" y="740"/>
      <point x="610" y="740" type="qcurve" smooth="yes"/>
      <point x="544" y="740"/>
      <point x="350" y="638"/>
      <point x="277" y="573" type="qcurve"/>
      <point x="255" y="448" type="line"/>
    </contour>
  </outline>
</glyph>
<glyph name="q" format="2">
  <advance width="1015"/>
  <unicode hex="0071"/>
  <anchor x="594.0" y="0" name="bottom"/>
  <anchor x="564.0" y="870" name="top"/>
  <outline>
    <contour>
      <point x="-6" y="263" type="qcurve" smooth="yes"/>
      <point x="-6" y="512"/>
      <point x="394" y="855"/>
      <point x="594" y="855" type="qcurve" smooth="yes"/>
      <point x="612" y="855"/>
      <point x="647" y="848"/>
      <point x="663" y="841" type="qcurve"/>
      <point x="766" y="904" type="line"/>
      <point x="812" y="904" type="line"/>
      <point x="875" y="765" type="line"/>
      <point x="811" y="506" type="line"/>
      <point x="618" y="-316" type="line"/>
      <point x="743" y="-356" type="line"/>
      <point x="715" y="-428" type="line"/>
      <point x="534" y="-462" type="line"/>
      <point x="447" y="-391" type="line"/>
      <point x="589" y="182" type="line"/>
      <point x="578" y="185" type="line"/>
      <point x="491" y="93"/>
      <point x="296" y="15"/>
      <point x="215" y="15" type="qcurve" smooth="yes"/>
      <point x="98" y="15"/>
      <point x="-6" y="161"/>
    </contour>
    <contour>
      <point x="163" y="315" type="qcurve" smooth="yes"/>
      <point x="163" y="239"/>
      <point x="223" y="152"/>
      <point x="292" y="152" type="qcurve" smooth="yes"/>
      <point x="410" y="152"/>
      <point x="619" y="340"/>
      <point x="657" y="516" type="qcurve" smooth="yes"/>
      <point x="686" y="650" type="line"/>
      <point x="683" y="690"/>
      <point x="618" y="716"/>
      <point x="577" y="716" type="qcurve" smooth="yes"/>
      <point x="390" y="716"/>
      <point x="163" y="483"/>
    </contour>
  </outline>
</glyph>
<glyph name="r" format="2">
  <advance width="783"/>
  <unicode hex="0072"/>
  <anchor x="282.0" y="0" name="bottom"/>
  <anchor x="457.0" y="850" name="top"/>
  <outline>
    <contour>
      <point x="80" y="-14" type="line"/>
      <point x="39" y="75" type="line"/>
      <point x="144" y="527" type="line"/>
      <point x="153" y="671" type="line"/>
      <point x="11" y="667" type="line"/>
      <point x="13" y="764" type="line"/>
      <point x="222" y="850" type="line"/>
      <point x="278" y="850" type="line"/>
      <point x="295" y="656" type="line"/>
      <point x="310" y="590" type="line"/>
      <point x="223" y="137" type="line"/>
      <point x="354" y="106" type="line"/>
      <point x="354" y="18" type="line"/>
    </contour>
    <contour>
      <point x="602" y="497" type="line"/>
      <point x="590" y="714" type="line"/>
      <point x="492" y="714"/>
      <point x="314" y="586"/>
      <point x="204" y="417" type="qcurve"/>
      <point x="217" y="530" type="line"/>
      <point x="310" y="696"/>
      <point x="532" y="862"/>
      <point x="643" y="862" type="qcurve" smooth="yes"/>
      <point x="698" y="862"/>
      <point x="753" y="829"/>
      <point x="753" y="786" type="qcurve" smooth="yes"/>
      <point x="753" y="702"/>
      <point x="681" y="497"/>
      <point x="625" y="497" type="qcurve" smooth="yes"/>
    </contour>
  </outline>
</glyph>
<glyph name="s" format="2">
  <advance width="839"/>
  <unicode hex="0073"/>
  <anchor x="282.0" y="0" name="bottom"/>
  <anchor x="417.0" y="850" name="top"/>
  <outline>
    <contour>
      <point x="-25" y="210" type="qcurve" smooth="yes"/>
      <point x="-25" y="290"/>
      <point x="60" y="380"/>
      <point x="117" y="380" type="qcurve" smooth="yes"/>
      <point x="143" y="380" type="line"/>
      <point x="143" y="195" type="line" smooth="yes"/>
      <point x="143" y="148"/>
      <point x="214" y="98"/>
      <point x="295" y="98" type="qcurve" smooth="yes"/>
      <point x="391" y="98"/>
      <point x="518" y="160"/>
      <point x="518" y="220" type="qcurve" smooth="yes"/>
      <point x="518" y="270"/>
      <point x="426" y="341"/>
      <point x="317" y="392" type="qcurve" smooth="yes"/>
      <point x="204" y="445"/>
      <point x="73" y="559"/>
      <point x="74" y="641" type="qcurve" smooth="yes"/>
      <point x="75" y="732"/>
      <point x="265" y="868"/>
      <point x="438" y="868" type="qcurve" smooth="yes"/>
      <point x="557" y="868"/>
      <point x="682" y="757"/>
      <point x="682" y="681" type="qcurve" smooth="yes"/>
      <point x="682" y="617"/>
      <point x="609" y="527"/>
      <point x="559" y="527" type="qcurve" smooth="yes"/>
      <point x="532" y="527" type="line"/>
      <point x="532" y="662" type="line" smooth="yes"/>
      <point x="532" y="689"/>
      <point x="471" y="751"/>
      <point x="400" y="751" type="qcurve" smooth="yes"/>
      <point x="328" y="751"/>
      <point x="218" y="710"/>
      <point x="218" y="668" type="qcurve" smooth="yes"/>
      <point x="218" y="624"/>
      <point x="309" y="564"/>
      <point x="406" y="513" type="qcurve" smooth="yes"/>
      <point x="516" y="455"/>
      <point x="665" y="347"/>
      <point x="665" y="252" type="qcurve"/>
      <point x="667" y="134"/>
      <point x="450" y="-15"/>
      <point x="278" y="-15" type="qcurve" smooth="yes"/>
      <point x="129" y="-15"/>
      <point x="-25" y="127"/>
    </contour>
  </outline>
</glyph>
<glyph name="t" format="2">
  <advance width="613"/>
  <unicode hex="0074"/>
  <anchor x="149" y="0" name="bottom"/>
  <anchor x="238" y="456.0" name="center"/>
  <anchor x="322" y="1179" name="top"/>
  <anchor x="600" y="920" name="topright"/>
  <outline>
    <contour>
      <point x="105" y="-15" type="line"/>
      <point x="31" y="117" type="line"/>
      <point x="128" y="512" type="line"/>
      <point x="156" y="680" type="line"/>
      <point x="-5" y="692" type="line"/>
      <point x="10" y="766" type="line"/>
      <point x="112" y="802"/>
      <point x="260" y="995"/>
      <point x="289" y="1087" type="qcurve"/>
      <point x="336" y="1087" type="line"/>
      <point x="362" y="1047" type="line"/>
      <point x="276" y="524" type="line"/>
      <point x="214" y="134" type="line"/>
      <point x="400" y="154" type="line"/>
      <point x="400" y="66" type="line"/>
    </contour>
    <contour>
      <point x="200" y="699" type="line"/>
      <point x="245" y="830" type="line"/>
      <point x="550" y="830" type="line"/>
      <point x="550" y="725" type="line"/>
    </contour>
  </outline>
</glyph>
<glyph name="v" format="2">
  <advance width="979"/>
  <unicode hex="0076"/>
  <anchor x="303.0" y="0" name="bottom"/>
  <anchor x="484.0" y="850" name="top"/>
  <outline>
    <contour>
      <point x="237" y="-8" type="line"/>
      <point x="152" y="420" type="line"/>
      <point x="101" y="671" type="line"/>
      <point x="-41" y="668" type="line"/>
      <point x="-39" y="765" type="line"/>
      <point x="172" y="851" type="line"/>
      <point x="240" y="851" type="line"/>
      <point x="308" y="496" type="line"/>
      <point x="349" y="279" type="line"/>
      <point x="371" y="174" type="line"/>
      <point x="381" y="174" type="line"/>
      <point x="470" y="283" type="line"/>
      <point x="591" y="429"/>
      <point x="685" y="578"/>
      <point x="685" y="619" type="qcurve" smooth="yes"/>
      <point x="685" y="665"/>
      <point x="582" y="751"/>
      <point x="582" y="801" type="qcurve" smooth="yes"/>
      <point x="582" y="842"/>
      <point x="651" y="891"/>
      <point x="699" y="891" type="qcurve" smooth="yes"/>
      <point x="758" y="891"/>
      <point x="842" y="808"/>
      <point x="842" y="716" type="qcurve" smooth="yes"/>
      <point x="842" y="598"/>
      <point x="634" y="292"/>
      <point x="359" y="-8" type="qcurve"/>
    </contour>
  </outline>
</glyph>
<glyph name="w" format="2">
  <advance width="1465"/>
  <unicode hex="0077"/>
  <anchor x="787" y="0" name="bottom"/>
  <anchor x="688" y="850" name="top"/>
  <outline>
    <contour>
      <point x="246" y="-8" type="line"/>
      <point x="177" y="336" type="line"/>
      <point x="110" y="672" type="line"/>
      <point x="-32" y="672" type="line"/>
      <point x="-30" y="769" type="line"/>
      <point x="187" y="851" type="line"/>
      <point x="249" y="851" type="line"/>
      <point x="334" y="388" type="line"/>
      <point x="354" y="284" type="line"/>
      <point x="374" y="174" type="line"/>
      <point x="384" y="174" type="line"/>
      <point x="477" y="284" type="line"/>
      <point x="634" y="470" type="line"/>
      <point x="588" y="672" type="line"/>
      <point x="496" y="672" type="line"/>
      <point x="496" y="770" type="line"/>
      <point x="670" y="851" type="line"/>
      <point x="728" y="851" type="line"/>
      <point x="825" y="385" type="line"/>
      <point x="845" y="290" type="line"/>
      <point x="870" y="168" type="line"/>
      <point x="880" y="168" type="line"/>
      <point x="973" y="290" type="line"/>
      <point x="1069" y="413"/>
      <point x="1176" y="546"/>
      <point x="1176" y="588" type="qcurve" smooth="yes"/>
      <point x="1176" y="656"/>
      <point x="1077" y="743"/>
      <point x="1075" y="789" type="qcurve" smooth="yes"/>
      <point x="1073" y="828"/>
      <point x="1133" y="891"/>
      <point x="1179" y="891" type="qcurve"/>
      <point x="1237" y="894"/>
      <point x="1332" y="792"/>
      <point x="1332" y="683" type="qcurve" smooth="yes"/>
      <point x="1332" y="565"/>
      <point x="1101" y="279"/>
      <point x="864" y="-8" type="qcurve"/>
      <point x="742" y="-8" type="line"/>
      <point x="700" y="180" type="line"/>
      <point x="668" y="323" type="line"/>
      <point x="658" y="323" type="line"/>
      <point x="542" y="190" type="line"/>
      <point x="368" y="-8" type="line"/>
    </contour>
  </outline>
</glyph>
<glyph name="x" format="2">
  <advance width="930"/>
  <unicode hex="0078"/>
  <anchor x="322" y="0" name="bottom"/>
  <anchor x="493" y="850" name="top"/>
  <outline>
    <contour>
      <point x="11" y="-12" type="qcurve"/>
      <point x="-171" y="44" type="line"/>
      <point x="-158" y="139" type="line"/>
      <point x="12" y="137" type="line" smooth="yes"/>
      <point x="50" y="136"/>
      <point x="160" y="193"/>
      <point x="208" y="246" type="qcurve" smooth="yes"/>
      <point x="251" y="293"/>
      <point x="291" y="346"/>
      <point x="333" y="405" type="qcurve"/>
      <point x="191" y="689" type="line"/>
      <point x="11" y="668" type="line"/>
      <point x="13" y="765" type="line"/>
      <point x="232" y="854" type="line"/>
      <point x="305" y="835" type="line"/>
      <point x="406" y="617" type="line"/>
      <point x="440" y="547" type="line"/>
      <point x="450" y="547" type="line"/>
      <point x="478" y="593" type="line" smooth="yes"/>
      <point x="495" y="621"/>
      <point x="545" y="695"/>
      <point x="575" y="732" type="qcurve" smooth="yes"/>
      <point x="619" y="787"/>
      <point x="727" y="852"/>
      <point x="792" y="852" type="qcurve" smooth="yes"/>
      <point x="843" y="852"/>
      <point x="913" y="805"/>
      <point x="913" y="765" type="qcurve" smooth="yes"/>
      <point x="913" y="716"/>
      <point x="842" y="652"/>
      <point x="816" y="652" type="qcurve"/>
      <point x="800" y="663" type="line"/>
      <point x="800" y="687" type="line" smooth="yes"/>
      <point x="800" y="703"/>
      <point x="781" y="720"/>
      <point x="759" y="720" type="qcurve" smooth="yes"/>
      <point x="721" y="720"/>
      <point x="659" y="675"/>
      <point x="620" y="622" type="qcurve" smooth="yes"/>
      <point x="584" y="573"/>
      <point x="538" y="509"/>
      <point x="496" y="449" type="qcurve"/>
      <point x="653" y="134" type="line"/>
      <point x="792" y="134" type="line"/>
      <point x="792" y="46" type="line"/>
      <point x="600" y="-11" type="line"/>
      <point x="531" y="7" type="line"/>
      <point x="414" y="250" type="line"/>
      <point x="388" y="305" type="line"/>
      <point x="378" y="305" type="line"/>
      <point x="345" y="251" type="line"/>
      <point x="327" y="222"/>
      <point x="292" y="169"/>
      <point x="262" y="132" type="qcurve" smooth="yes"/>
      <point x="216" y="75"/>
      <point x="76" y="-13"/>
    </contour>
  </outline>
</glyph>
<glyph name="y" format="2">
  <advance width="989"/>
  <unicode hex="0079"/>
  <anchor x="782.0" y="0" name="bottom"/>
  <anchor x="475.0" y="850" name="top"/>
  <outline>
    <contour>
      <point x="-361" y="-405" type="line"/>
      <point x="-326" y="-304" type="line"/>
      <point x="-166" y="-304" type="line" smooth="yes"/>
      <point x="-30" y="-304"/>
      <point x="221" y="-157"/>
      <point x="304" y="-28" type="qcurve" smooth="yes"/>
      <point x="321" y="0" type="line"/>
      <point x="244" y="0" type="line"/>
      <point x="219" y="113"/>
      <point x="133" y="511"/>
      <point x="101" y="672" type="qcurve"/>
      <point x="-41" y="668" type="line"/>
      <point x="-39" y="765" type="line"/>
      <point x="180" y="851" type="line"/>
      <point x="247" y="851" type="line"/>
      <point x="270" y="740" type="line"/>
      <point x="370" y="215" type="line"/>
      <point x="389" y="106" type="line"/>
      <point x="399" y="106" type="line"/>
      <point x="470" y="216" type="line"/>
      <point x="561" y="353"/>
      <point x="668" y="572"/>
      <point x="668" y="619" type="qcurve" smooth="yes"/>
      <point x="668" y="677"/>
      <point x="612" y="755"/>
      <point x="612" y="799" type="qcurve" smooth="yes"/>
      <point x="612" y="841"/>
      <point x="672" y="891"/>
      <point x="713" y="891" type="qcurve" smooth="yes"/>
      <point x="771" y="891"/>
      <point x="851" y="797"/>
      <point x="851" y="707" type="qcurve" smooth="yes"/>
      <point x="851" y="600"/>
      <point x="610" y="233"/>
      <point x="428" y="-22" type="qcurve" smooth="yes"/>
      <point x="403" y="-57" type="line" smooth="yes"/>
      <point x="275" y="-237"/>
      <point x="-37" y="-464"/>
      <point x="-151" y="-464" type="qcurve"/>
    </contour>
  </outline>
</glyph>
<glyph name="z" format="2">
  <advance width="885"/>
  <unicode hex="007A"/>
  <anchor x="443" y="0" name="bottom"/>
  <anchor x="434" y="850" name="top"/>
  <outline>
    <contour>
      <point x="-10" y="-10" type="line"/>
      <point x="-85" y="73" type="line"/>
      <point x="38" y="192"/>
      <point x="231" y="387"/>
      <point x="309" y="462" type="qcurve" smooth="yes"/>
      <point x="373" y="523"/>
      <point x="485" y="621"/>
      <point x="567" y="700" type="qcurve"/>
      <point x="172" y="696" type="line"/>
      <point x="124" y="570" type="line"/>
      <point x="16" y="570" type="line"/>
      <point x="73" y="823" type="line"/>
      <point x="135" y="842" type="line"/>
      <point x="742" y="842" type="line"/>
      <point x="770" y="725" type="line"/>
      <point x="666" y="629"/>
      <point x="488" y="458"/>
      <point x="421" y="396" type="qcurve" smooth="yes"/>
      <point x="360" y="340"/>
      <point x="275" y="268"/>
      <point x="209" y="204" type="qcurve"/>
      <point x="586" y="133" type="line"/>
      <point x="678" y="260" type="line"/>
      <point x="767" y="235" type="line"/>
      <point x="686" y="-10" type="line"/>
      <point x="649" y="-29" type="line"/>
      <point x="94" y="83" type="line"/>
    </contour>
  </outline>
</glyph>
<glyph name="idotless" format="2">
  <advance width="618"/>
  <unicode hex="0131"/>
  <anchor x="180" y="0" name="bottom"/>
  <anchor x="291" y="850" name="top"/>
  <anchor x="180" y="0" name="ogonek"/>
  <anchor x="221" y="408" name="yu_dash"/>
  <outline>
    <contour>
      <point x="105" y="-21" type="line"/>
      <point x="64" y="68" type="line"/>
      <point x="158" y="527" type="line"/>
      <point x="187" y="670" type="line"/>
      <point x="19" y="668" type="line"/>
      <point x="21" y="765" type="line"/>
      <point x="269" y="850" type="line"/>
      <point x="329" y="850" type="line"/>
      <point x="370" y="738" type="line"/>
      <point x="341" y="639" type="line"/>
      <point x="247" y="140" type="line"/>
      <point x="468" y="164" type="line"/>
      <point x="468" y="76" type="line"/>
    </contour>
  </outline>
</glyph>
<glyph name="jdotless" format="2">
  <advance width="556"/>
  <unicode hex="0237"/>
  <anchor x="88.0" y="-436" name="bottom"/>
  <anchor x="291" y="850" name="top"/>
  <outline>
    <contour>
      <point x="197" y="672" type="qcurve"/>
      <point x="35" y="668" type="line"/>
      <point x="37" y="765" type="line"/>
      <point x="268" y="850" type="line"/>
      <point x="338" y="850" type="line"/>
      <point x="382" y="739" type="line"/>
      <point x="342" y="630" type="line"/>
      <point x="267" y="132" type="line"/>
      <point x="228" y="-164"/>
      <point x="3" y="-464"/>
      <point x="-186" y="-464" type="qcurve"/>
      <point x="-396" y="-425" type="line"/>
      <point x="-378" y="-328" type="line"/>
      <point x="-190" y="-330" type="line" smooth="yes"/>
      <point x="-77" y="-331"/>
      <point x="58" y="-128"/>
      <point x="104" y="112" type="qcurve" smooth="yes"/>
      <point x="130" y="243"/>
      <point x="179" y="545"/>
    </contour>
  </outline>
</glyph>
<glyph name="breveinvertedcomb" format="2">
  <unicode hex="030F"/>
  <anchor x="0.0" y="1000" name="_top"/>
  <anchor x="92.0" y="1470.0" name="top"/>
  <outline>
    <contour>
      <point x="-228.0" y="1153.0" type="qcurve"/>
      <point x="-301.0" y="1206.0" type="line"/>
      <point x="-261.0" y="1304.0"/>
      <point x="-43.0" y="1473.0"/>
      <point x="81.0" y="1473.0" type="qcurve" smooth="yes"/>
      <point x="204.0" y="1473.0"/>
      <point x="369.0" y="1319.0"/>
      <point x="372.0" y="1209.0" type="qcurve"/>
      <point x="292.0" y="1152.0" type="line"/>
      <point x="274.0" y="1214.0"/>
      <point x="157.0" y="1317.0"/>
      <point x="65.0" y="1317.0" type="qcurve" smooth="yes"/>
      <point x="-31.0" y="1317.0"/>
      <point x="-191.0" y="1206.0"/>
    </contour>
  </outline>
</glyph>
